#!OML:ASF H:\Terrain\Patient Classification 1\Walking\liu\liu.ASF
:FULLY-SPECIFIED
:DEGREES
241
root 9.07124 16.4525 3.62951 6.12562 5.65134 4.84819
lowerback -5.36077 -4.93616 -7.05568
upperback -0.379848 -6.21706 2.01397
thorax 3.58283 -3.22808 5.47389
lowerneck -23.7233 -3.15138 -11.0064
upperneck 24.1252 -3.46351 10.6874
head 12.3033 -1.15944 5.35757
rclavicle 2.68359e-015 1.90833e-014
rhumerus -50.467 -1.56783 -73.3433
rradius 21.7232
rwrist -4.44754
rhand -29.1845 -19.4075
rfingers 7.12502
rthumb -2.52991 -49.3722
lclavicle 2.68359e-015 1.90833e-014
lhumerus -3.02629 -26.2402 79.7202
lradius 43.5559
lwrist 12.0382
lhand -16.7364 -28.5807
lfingers 7.12502
lthumb 9.48966 1.18563
rfemur -39.5562 4.33157 14.8554
rtibia 30.3265
rfoot -10.6153 -6.51776
rtoes -20.5433
lfemur 21.1422 6.2352 -24.5603
ltibia -3.18055e-015
lfoot -10.7291 -6.54346
ltoes -0.704958
242
root 9.04913 16.4569 3.84527 6.13522 5.68987 4.43034
lowerback -5.44044 -4.93427 -6.57165
upperback -0.512453 -6.24416 2.12087
thorax 3.45261 -3.22698 5.31339
lowerneck -23.3754 -3.15127 -11.291
upperneck 24.1343 -3.47428 10.9557
head 12.251 -1.16499 5.5086
rclavicle 3.29983e-014 7.15625e-015
rhumerus -50.2677 -2.70494 -72.2042
rradius 20.9089
rwrist -3.3052
rhand -29.1332 -18.7649
rfingers 7.12502
rthumb -2.48039 -48.7302
lclavicle 3.29983e-014 7.15625e-015
lhumerus -3.49104 -26.7464 79.8807
lradius 43.5965
lwrist 12.4413
lhand -16.6869 -28.8731
lfingers 7.12502
lthumb 9.53749 0.891055
rfemur -39.7095 4.35471 15.3852
rtibia 31.2307
rfoot -9.26037 -6.18695
rtoes -21.0012
lfemur 21.7888 6.54937 -23.8414
ltibia 2.54444e-014
lfoot -9.76838 -5.97783
ltoes -7.23026
243
root 9.03297 16.4476 4.06027 6.08341 5.77059 4.09083
lowerback -5.91966 -4.97925 -6.22161
upperback -0.244751 -6.29714 2.23517
thorax 3.98419 -3.2711 5.17803
lowerneck -23.3561 -3.11411 -11.3729
upperneck 23.8922 -3.36264 10.9177
head 12.1378 -1.12535 5.51446
rclavicle -4.75095e-014 1.43125e-014
rhumerus -49.5935 -3.31861 -71.773
rradius 20.5364
rwrist -2.80122
rhand -28.2148 -19.9041
rfingers 7.12502
rthumb -1.59338 -49.8779
lclavicle -4.75095e-014 1.43125e-014
lhumerus -3.2599 -27.1141 79.7738
lradius 43.4106
lwrist 12.6555
lhand -15.7196 -29.0831
lfingers 7.12502
lthumb 10.4706 0.636181
rfemur -39.6695 4.02234 15.968
rtibia 32.1562
rfoot -7.97078 -5.34984
rtoes -21.3937
lfemur 22.5178 6.80298 -23.1355
ltibia 2.8625e-014
lfoot -8.13002 -5.70225
ltoes -8.95537
244
root 9.01941 16.4321 4.27356 5.88836 5.76554 3.96244
lowerback -5.35793 -4.97687 -5.98172
upperback -0.683709 -6.34814 2.26943
thorax 3.19532 -3.25969 5.14462
lowerneck -22.8258 -2.94046 -11.2617
upperneck 24.2049 -3.16301 10.6624
head 12.1197 -1.07461 5.4358
rclavicle 4.74598e-014 1.03368e-014
rhumerus -50.163 -2.83342 -71.8973
rradius 20.4959
rwrist -3.36795
rhand -28.2192 -21.4288
rfingers 7.12502
rthumb -1.59758 -51.4026
lclavicle 4.74598e-014 1.03368e-014
lhumerus -5.00173 -26.2916 80.7981
lradius 43.6453
lwrist 11.5056
lhand -14.2559 -29.2237
lfingers 7.12502
lthumb 11.8823 0.419125
rfemur -39.3544 3.3167 16.5727
rtibia 33.1858
rfoot -6.74581 -4.25957
rtoes -20.0926
lfemur 23.4752 7.13309 -22.6913
ltibia 1.27222e-014
lfoot -6.50933 -5.23545
ltoes -12.1305
245
root 9.00861 16.438 4.48707 5.63785 5.71168 4.04364
lowerback -5.27045 -4.98412 -5.97046
upperback -0.63023 -6.36116 2.21543
thorax 3.19645 -3.26695 5.08549
lowerneck -22.8227 -2.8555 -10.8548
upperneck 24.2776 -3.05279 10.17
head 12.1161 -1.05102 5.19194
rclavicle -5.03919e-014 -2.54444e-014
rhumerus -49.9182 -3.15121 -71.7057
rradius 20.2098
rwrist -3.10721
rhand -29.4808 -20.8663
rfingers 7.12502
rthumb -2.81605 -50.8274
lclavicle -5.03919e-014 -2.54444e-014
lhumerus -6.1948 -24.8705 81.5497
lradius 44.1712
lwrist 9.89837
lhand -15.7841 -28.801
lfingers 7.12502
lthumb 10.4084 0.921361
rfemur -38.9433 2.3657 17.0813
rtibia 34.3183
rfoot -6.12484 -3.04115
rtoes -18.9245
lfemur 24.4079 7.51023 -22.5221
ltibia -7.31528e-014
lfoot -4.53702 -4.52176
ltoes -16.4276
246
root 9.00614 16.4534 4.69623 5.32269 5.75406 3.9219
lowerback -5.2511 -5.04455 -5.76284
upperback -0.400301 -6.45535 2.28969
thorax 3.4241 -3.32411 5.027
lowerneck -22.9032 -2.76703 -10.8796
upperneck 24.1287 -2.87798 10.1027
head 12.0503 -0.980177 5.19296
rclavicle 2.80783e-014 7.95139e-015
rhumerus -49.2983 -4.06668 -70.954
rradius 19.8921
rwrist -1.95024
rhand -29.1769 -20.4239
rfingers 7.12502
rthumb -2.52253 -50.3887
lclavicle 2.80783e-014 7.95139e-015
lhumerus -6.99214 -23.6322 82.1734
lradius 44.5528
lwrist 9.01007
lhand -12.186 -29.321
lfingers 7.12502
lthumb 13.8777 0.195969
rfemur -38.4569 1.32282 17.7398
rtibia 35.5142
rfoot -6.13028 -1.69635
rtoes -18.0422
lfemur 25.3417 7.81159 -22.136
ltibia -4.13472e-014
lfoot -2.07383 -3.50619
ltoes -18.9734
247
root 8.98361 16.4578 4.90836 5.30948 5.34286 3.35381
lowerback -5.51299 -4.91481 -5.27249
upperback -0.30933 -6.30557 2.51061
thorax 3.61759 -3.25114 4.97484
lowerneck -22.9593 -2.75057 -11.4668
upperneck 24.0412 -2.79627 10.6945
head 12.0355 -0.920349 5.53908
rclavicle 5.66536e-015 1.74931e-014
rhumerus -48.6994 -5.17952 -70.0963
rradius 19.4922
rwrist -0.891643
rhand -28.2287 -21.3687
rfingers 7.12502
rthumb -1.60678 -51.3424
lclavicle 5.66536e-015 1.74931e-014
lhumerus -7.6631 -23.0351 82.7466
lradius 44.4664
lwrist 8.56911
lhand -11.3141 -29.9517
lfingers 7.12502
lthumb 14.7179 -0.494186
rfemur -38.3424 1.56648 18.6344
rtibia 36.5658
rfoot -6.36063 -0.975669
rtoes -15.8806
lfemur 22.1126 8.74978 -21.1784
ltibia 7.43871
lfoot -2.60747 -3.04063
ltoes -19.8583
248
root 8.96149 16.4625 5.10702 5.30009 5.10008 3.13556
lowerback -5.5259 -4.7788 -4.99964
upperback -0.270911 -6.14011 2.50978
thorax 3.61408 -3.16473 4.83817
lowerneck -23.3294 -2.84789 -11.6553
upperneck 24.2393 -2.89255 10.892
head 12.2057 -0.950421 5.64976
rclavicle -1.85864e-014 1.43125e-014
rhumerus -48.2368 -6.15661 -69.6543
rradius 19.2006
rwrist -0.267489
rhand -28.7324 -21.1698
rfingers 7.12502
rthumb -2.09331 -51.1393
lclavicle -1.85864e-014 1.43125e-014
lhumerus -8.37442 -23.1436 83.1691
lradius 44.2638
lwrist 8.09761
lhand -12.3657 -30.1735
lfingers 7.12502
lthumb 13.7046 -0.644807
rfemur -38.0471 1.29708 19.2356
rtibia 37.3888
rfoot -6.52203 0.098984
rtoes -14.7338
lfemur 19.248 9.50308 -20.6025
ltibia 13.9845
lfoot -2.0887 -2.38212
ltoes -17.528
249
root 8.93502 16.4759 5.29799 5.30289 5.0167 2.89219
lowerback -5.35436 -4.73368 -4.80278
upperback -0.373897 -6.10059 2.54025
thorax 3.3882 -3.13469 4.78383
lowerneck -23.6211 -2.81722 -11.3332
upperneck 24.6221 -2.87096 10.5825
head 12.4003 -0.949213 5.49725
rclavicle 4.55217e-014 -2.3059e-014
rhumerus -47.9445 -6.72948 -69.4873
rradius 19.0561
rwrist 0.391481
rhand -29.1294 -20.4448
rfingers 7.12502
rthumb -2.47671 -50.4102
lclavicle 4.55217e-014 -2.3059e-014
lhumerus -9.44541 -22.6954 83.7351
lradius 44.0705
lwrist 7.40499
lhand -12.5074 -30.0439
lfingers 7.12502
lthumb 13.568 -0.506012
rfemur -37.5869 0.928062 19.8877
rtibia 37.9067
rfoot -6.9489 0.859947
rtoes -15.0796
lfemur 16.9796 10.4341 -19.8587
ltibia 19.1832
lfoot -0.627894 -2.05212
ltoes -14.0085
250
root 8.91341 16.4962 5.49689 5.25744 4.9629 2.32408
lowerback -5.16779 -4.7493 -4.35482
upperback -0.566398 -6.16084 2.72824
thorax 3.06449 -3.14894 4.74859
lowerneck -23.5755 -2.64134 -10.8388
upperneck 24.9583 -2.69991 10.1309
head 12.4851 -0.890082 5.27576
rclavicle -1.49834e-014 -3.18055e-015
rhumerus -47.8475 -5.98138 -70.0904
rradius 19.4358
rwrist -0.189101
rhand -28.9326 -22.0774
rfingers 7.12502
rthumb -2.28666 -52.0449
lclavicle -1.49834e-014 -3.18055e-015
lhumerus -10.7002 -21.5556 84.4088
lradius 43.6324
lwrist 6.36719
lhand -11.9706 -30.1975
lfingers 7.12502
lthumb 14.0853 -0.694899
rfemur -36.8916 0.555308 20.8712
rtibia 38.1357
rfoot -7.60098 1.4933
rtoes -14.7072
lfemur 15.0156 11.2381 -18.8207
ltibia 23.8877
lfoot 1.06613 -1.46632
ltoes -11.206
